{"title":"Thomas And Friends Wobbly Wheels And Whistles 2011 DVDRip][XVID]","uid":6121153,"size":712081317,"categoryP":"video","categoryS":"movies","magnet":"?xt=urn:btih:1c38750d3c31c2c5e132cdbe1e4c1509c551f2fa&amp;dn=Thomas+And+Friends+Wobbly+Wheels+And+Whistles+2011+DVDRip%5D%5BXVID%5D&amp;tr=udp%3A%2F%2Ftracker.openbittorrent.com%3A80&amp;tr=udp%3A%2F%2Fopen.demonii.com%3A1337&amp;tr=udp%3A%2F%2Ftracker.coppersurfer.tk%3A6969&amp;tr=udp%3A%2F%2Fexodus.desync.com%3A6969","seeders":1,"leechers":1,"uploader":"ICM369","files":-1,"time":1295747169,"description":"Thomas And Friends Wobbly Wheels And Whistles 2011 DVDRip][XVID][ICM369\n_______________________________________________________________________\n\n\nScreenshots: http://leetleech.org/images/15369702249995756617.jpg\n\n\nCome along with Thomas for a wonderfully wobbly and wheelspinning good \ntime! \n\nYour favourite friend has bridges to cross and tracks to uncover in \nthese exciting adventures. \n\nWhen Victor gets overloaded with too many tasks, can Thomas help him let \nout the steam? \n\nWhile trying to get Scruff as clean as a whistle, will Thomas have to get \nhis own wheels dirty? \nJust when things seem to be rolling along, will Ol\\\\\\\\\\\\\\' Wheezy make a wobbly \nmess of Thomas\\\\\\\\\\\\\\' special delivery? Hold on for exciting surprises waiting \nto be delivered just for you!\n\nJoin Thomas and some of his friends on for some extra special adventures \non the island of Sodor. \n\nIncludes the episode \\\\\\\\\\\\\\'Toby And The Whistling Woods\\\\\\\\\\\\\\', \\\\\\\\\\\\\\'Victor Says Yes\\\\\\\\\\\\\\', \n\\\\\\\\\\\\\\'Jumping Jobi Wood!\\\\\\\\\\\\\\', and \\\\\\\\\\\\\\'Thomas And Scruff\\\\\\\\\\\\\\'.\n__________\n\nFormat                           : AVI\nFormat/Info                      : Audio Video Interleave\nFile size                        : 679 MiB\nDuration                         : 48mn 22s\nOverall bit rate                 : 1 962 Kbps\nWriting application              : VirtualDubMod 1.5.10.3 | www.virtualdub-fr.org || (build 2550/release)\nWriting library                  : VirtualDubMod build 2550/release\n\nVideo\nID                               : 0\nFormat                           : MPEG-4 Visual\nFormat profile                   : Advanced Simple@L5\nFormat settings, BVOP            : Yes\nFormat settings, QPel            : No\nFormat settings, GMC             : No warppoints\nFormat settings, Matrix          : Default (MPEG)\nMuxing mode                      : Packed bitstream\nCodec ID                         : XVID\nCodec ID/Hint                    : XviD\nDuration                         : 48mn 22s\nBit rate                         : 1 761 Kbps\nWidth                            : 656 pixels\nHeight                           : 480 pixels\nDisplay aspect ratio             : 4:3\nFrame rate                       : 23.976 fps\nColor space                      : YUV\nChroma subsampling               : 4:2:0\nBit depth                        : 8 bits\nScan type                        : Interlaced\nScan order                       : Bottom Field First\nBits/(Pixel*Frame)               : 0.233\nStream size                      : 609 MiB (90%)\nWriting library                  : XviD 58\n\nAudio\nID                               : 1\nFormat                           : AC-3\nFormat/Info                      : Audio Coding 3\nMode extension                   : CM (complete main)\nCodec ID                         : 2000\nDuration                         : 48mn 22s\nBit rate mode                    : Constant\nBit rate                         : 192 Kbps\nChannel(s)                       : 2 channels\nChannel positions                : Front: L R\nSampling rate                    : 48.0 KHz\nBit depth                        : 16 bits\nStream size                      : 66.4 MiB (10%)\nAlignment                        : Split accross interleaves\nInterleave, duration             : 42 ms (1.00 video frame)\nInterleave, preload duration     : 500 ms\n__________\n\nEnjoy:D\n\n\n\n\n","torrent":{"xt":"urn:btih:1c38750d3c31c2c5e132cdbe1e4c1509c551f2fa","amp;dn":"Thomas+And+Friends+Wobbly+Wheels+And+Whistles+2011+DVDRip%5D%5BXVID%5D","amp;tr":["udp%3A%2F%2Ftracker.openbittorrent.com%3A80","udp%3A%2F%2Fopen.demonii.com%3A1337","udp%3A%2F%2Ftracker.coppersurfer.tk%3A6969","udp%3A%2F%2Fexodus.desync.com%3A6969"],"infoHash":"1c38750d3c31c2c5e132cdbe1e4c1509c551f2fa","infoHashBuffer":{"type":"Buffer","data":[28,56,117,13,60,49,194,197,225,50,205,190,30,76,21,9,197,81,242,250]},"announce":[],"urlList":[]}}